<mxfile host="app.diagrams.net" modified="2024-05-13T13:58:20.016Z" agent="Mozilla/5.0 (Windows NT 10.0; Win64; x64) AppleWebKit/537.36 (KHTML, like Gecko) Chrome/124.0.0.0 Safari/537.36" etag="-oq2NCVefjjhoA0QQVb9" version="24.4.0" type="github">
  <diagram name="Page-1" id="929967ad-93f9-6ef4-fab6-5d389245f69c">
    <mxGraphModel dx="1176" dy="606" grid="1" gridSize="10" guides="1" tooltips="1" connect="1" arrows="1" fold="1" page="1" pageScale="1.5" pageWidth="1169" pageHeight="826" background="none" math="0" shadow="0">
      <root>
        <mxCell id="0" style=";html=1;" />
        <mxCell id="1" style=";html=1;" parent="0" />
        <mxCell id="hU7zYgluL8TnL1km8cas-1" value="&lt;font style=&quot;vertical-align: inherit;&quot;&gt;&lt;font style=&quot;vertical-align: inherit;&quot;&gt;Пацієнт&lt;/font&gt;&lt;/font&gt;" style="shape=umlActor;verticalLabelPosition=bottom;verticalAlign=top;html=1;outlineConnect=0;fillColor=#d5e8d4;strokeColor=#82b366;" vertex="1" parent="1">
          <mxGeometry x="480" y="570" width="30" height="60" as="geometry" />
        </mxCell>
        <mxCell id="hU7zYgluL8TnL1km8cas-4" value="&lt;font style=&quot;vertical-align: inherit;&quot;&gt;&lt;font style=&quot;vertical-align: inherit;&quot;&gt;&lt;font style=&quot;vertical-align: inherit;&quot;&gt;&lt;font style=&quot;vertical-align: inherit;&quot;&gt;&lt;font style=&quot;vertical-align: inherit;&quot;&gt;&lt;font style=&quot;vertical-align: inherit;&quot;&gt;&lt;font style=&quot;vertical-align: inherit;&quot;&gt;&lt;font style=&quot;vertical-align: inherit;&quot;&gt;&lt;font style=&quot;vertical-align: inherit;&quot;&gt;&lt;font style=&quot;vertical-align: inherit;&quot;&gt;&lt;font style=&quot;vertical-align: inherit;&quot;&gt;&lt;font style=&quot;vertical-align: inherit;&quot;&gt;&lt;font style=&quot;vertical-align: inherit; font-size: 10px;&quot;&gt;&lt;font style=&quot;vertical-align: inherit; font-size: 10px;&quot;&gt;&lt;font style=&quot;vertical-align: inherit; font-size: 10px;&quot;&gt;&lt;font style=&quot;vertical-align: inherit; font-size: 10px;&quot;&gt;Пошук доступної зустрічі (завдяки розкладу)&lt;/font&gt;&lt;/font&gt;&lt;/font&gt;&lt;/font&gt;&lt;/font&gt;&lt;/font&gt;&lt;/font&gt;&lt;/font&gt;&lt;/font&gt;&lt;/font&gt;&lt;/font&gt;&lt;/font&gt;&lt;/font&gt;&lt;/font&gt;&lt;/font&gt;&lt;/font&gt;" style="rounded=1;whiteSpace=wrap;html=1;fillColor=#d5e8d4;strokeColor=#82b366;" vertex="1" parent="1">
          <mxGeometry x="630" y="500" width="90" height="60" as="geometry" />
        </mxCell>
        <mxCell id="hU7zYgluL8TnL1km8cas-6" value="&lt;font style=&quot;vertical-align: inherit;&quot;&gt;&lt;font style=&quot;vertical-align: inherit;&quot;&gt;&lt;font style=&quot;vertical-align: inherit;&quot;&gt;&lt;font style=&quot;vertical-align: inherit;&quot;&gt;Вибір лікарні&lt;/font&gt;&lt;/font&gt;&lt;/font&gt;&lt;/font&gt;" style="rounded=1;whiteSpace=wrap;html=1;fillColor=#d5e8d4;strokeColor=#82b366;" vertex="1" parent="1">
          <mxGeometry x="628.75" y="470" width="92.5" height="20" as="geometry" />
        </mxCell>
        <mxCell id="hU7zYgluL8TnL1km8cas-8" value="&lt;font style=&quot;vertical-align: inherit;&quot;&gt;&lt;font style=&quot;vertical-align: inherit;&quot;&gt;&lt;font style=&quot;vertical-align: inherit;&quot;&gt;&lt;font style=&quot;vertical-align: inherit;&quot;&gt;Управління розкладом лікарів&lt;/font&gt;&lt;/font&gt;&lt;/font&gt;&lt;/font&gt;" style="rounded=1;whiteSpace=wrap;html=1;gradientColor=#FFFF33;fillColor=#FF9999;" vertex="1" parent="1">
          <mxGeometry x="626.25" y="810" width="98.75" height="50" as="geometry" />
        </mxCell>
        <mxCell id="hU7zYgluL8TnL1km8cas-9" value="&lt;font style=&quot;vertical-align: inherit;&quot;&gt;&lt;font style=&quot;vertical-align: inherit;&quot;&gt;&lt;font style=&quot;vertical-align: inherit;&quot;&gt;&lt;font style=&quot;vertical-align: inherit;&quot;&gt;&lt;font style=&quot;vertical-align: inherit;&quot;&gt;&lt;font style=&quot;vertical-align: inherit;&quot;&gt;&lt;font style=&quot;vertical-align: inherit;&quot;&gt;&lt;font style=&quot;vertical-align: inherit;&quot;&gt;&lt;font style=&quot;vertical-align: inherit;&quot;&gt;&lt;font style=&quot;vertical-align: inherit;&quot;&gt;&lt;font style=&quot;vertical-align: inherit;&quot;&gt;&lt;font style=&quot;vertical-align: inherit;&quot;&gt;&lt;font style=&quot;vertical-align: inherit;&quot;&gt;&lt;font style=&quot;vertical-align: inherit;&quot;&gt;&lt;font style=&quot;vertical-align: inherit;&quot;&gt;&lt;font style=&quot;vertical-align: inherit;&quot;&gt;&lt;font style=&quot;vertical-align: inherit;&quot;&gt;&lt;font style=&quot;vertical-align: inherit;&quot;&gt;Перегляд записів та інформації про особу&lt;/font&gt;&lt;/font&gt;&lt;/font&gt;&lt;/font&gt;&lt;/font&gt;&lt;/font&gt;&lt;/font&gt;&lt;/font&gt;&lt;/font&gt;&lt;/font&gt;&lt;/font&gt;&lt;/font&gt;&lt;/font&gt;&lt;/font&gt;&lt;/font&gt;&lt;/font&gt;&lt;/font&gt;&lt;/font&gt;" style="rounded=1;whiteSpace=wrap;html=1;fillColor=#b1ddf0;strokeColor=#10739e;" vertex="1" parent="1">
          <mxGeometry x="625" y="745" width="100" height="50" as="geometry" />
        </mxCell>
        <mxCell id="hU7zYgluL8TnL1km8cas-11" value="" style="endArrow=none;html=1;rounded=0;exitX=1;exitY=0.858;exitDx=0;exitDy=0;entryX=0.5;entryY=0;entryDx=0;entryDy=0;exitPerimeter=0;" edge="1" parent="1" source="hU7zYgluL8TnL1km8cas-4" target="hU7zYgluL8TnL1km8cas-17">
          <mxGeometry width="50" height="50" relative="1" as="geometry">
            <mxPoint x="720" y="568.75" as="sourcePoint" />
            <mxPoint x="740" y="611.25" as="targetPoint" />
          </mxGeometry>
        </mxCell>
        <mxCell id="hU7zYgluL8TnL1km8cas-15" value="" style="endArrow=none;html=1;rounded=0;exitX=0.002;exitY=0.889;exitDx=0;exitDy=0;entryX=0.5;entryY=0;entryDx=0;entryDy=0;exitPerimeter=0;" edge="1" parent="1" source="hU7zYgluL8TnL1km8cas-4" target="hU7zYgluL8TnL1km8cas-16">
          <mxGeometry width="50" height="50" relative="1" as="geometry">
            <mxPoint x="640" y="584" as="sourcePoint" />
            <mxPoint x="639.46" y="610" as="targetPoint" />
          </mxGeometry>
        </mxCell>
        <mxCell id="hU7zYgluL8TnL1km8cas-16" value="&lt;font style=&quot;vertical-align: inherit;&quot;&gt;&lt;font style=&quot;vertical-align: inherit;&quot;&gt;Пошук за датою&lt;/font&gt;&lt;/font&gt;" style="ellipse;whiteSpace=wrap;html=1;fillColor=#d5e8d4;strokeColor=#82b366;" vertex="1" parent="1">
          <mxGeometry x="590" y="570" width="80" height="40" as="geometry" />
        </mxCell>
        <mxCell id="hU7zYgluL8TnL1km8cas-17" value="&lt;font style=&quot;vertical-align: inherit;&quot;&gt;&lt;font style=&quot;vertical-align: inherit;&quot;&gt;&lt;font style=&quot;vertical-align: inherit;&quot;&gt;&lt;font style=&quot;vertical-align: inherit;&quot;&gt;Пошук за лікарем&lt;/font&gt;&lt;/font&gt;&lt;/font&gt;&lt;/font&gt;" style="ellipse;whiteSpace=wrap;html=1;fillColor=#d5e8d4;strokeColor=#82b366;" vertex="1" parent="1">
          <mxGeometry x="680" y="570" width="80" height="40" as="geometry" />
        </mxCell>
        <mxCell id="hU7zYgluL8TnL1km8cas-20" value="" style="endArrow=classic;html=1;rounded=0;entryX=0;entryY=1;entryDx=0;entryDy=0;fillColor=#d5e8d4;strokeColor=#82b366;" edge="1" parent="1" target="hU7zYgluL8TnL1km8cas-6">
          <mxGeometry width="50" height="50" relative="1" as="geometry">
            <mxPoint x="520" y="620" as="sourcePoint" />
            <mxPoint x="580" y="510" as="targetPoint" />
          </mxGeometry>
        </mxCell>
        <mxCell id="hU7zYgluL8TnL1km8cas-21" value="" style="endArrow=classic;html=1;rounded=0;entryX=-0.033;entryY=0.625;entryDx=0;entryDy=0;entryPerimeter=0;fillColor=#d5e8d4;strokeColor=#82b366;" edge="1" parent="1" target="hU7zYgluL8TnL1km8cas-4">
          <mxGeometry width="50" height="50" relative="1" as="geometry">
            <mxPoint x="520" y="620" as="sourcePoint" />
            <mxPoint x="590" y="540" as="targetPoint" />
          </mxGeometry>
        </mxCell>
        <mxCell id="hU7zYgluL8TnL1km8cas-24" value="&lt;font style=&quot;vertical-align: inherit;&quot;&gt;&lt;font style=&quot;vertical-align: inherit;&quot;&gt;&lt;font style=&quot;vertical-align: inherit;&quot;&gt;&lt;font style=&quot;vertical-align: inherit;&quot;&gt;&lt;font style=&quot;vertical-align: inherit;&quot;&gt;&lt;font style=&quot;vertical-align: inherit;&quot;&gt;Запис на прийом&lt;/font&gt;&lt;/font&gt;&lt;/font&gt;&lt;/font&gt;&lt;/font&gt;&lt;/font&gt;" style="rounded=1;whiteSpace=wrap;html=1;gradientColor=#FFFF33;fillColor=#CCFF99;" vertex="1" parent="1">
          <mxGeometry x="622.5" y="640" width="115" height="30" as="geometry" />
        </mxCell>
        <mxCell id="hU7zYgluL8TnL1km8cas-26" value="" style="endArrow=classic;html=1;rounded=0;entryX=-0.024;entryY=0.073;entryDx=0;entryDy=0;entryPerimeter=0;fillColor=#d5e8d4;strokeColor=#82b366;" edge="1" parent="1" target="hU7zYgluL8TnL1km8cas-9">
          <mxGeometry width="50" height="50" relative="1" as="geometry">
            <mxPoint x="520" y="620" as="sourcePoint" />
            <mxPoint x="630" y="740" as="targetPoint" />
          </mxGeometry>
        </mxCell>
        <mxCell id="hU7zYgluL8TnL1km8cas-31" value="&lt;font style=&quot;vertical-align: inherit;&quot;&gt;&lt;font style=&quot;vertical-align: inherit;&quot;&gt;&lt;font style=&quot;vertical-align: inherit;&quot;&gt;&lt;font style=&quot;vertical-align: inherit;&quot;&gt;&lt;font style=&quot;vertical-align: inherit;&quot;&gt;&lt;font style=&quot;vertical-align: inherit;&quot;&gt;&lt;font style=&quot;vertical-align: inherit;&quot;&gt;&lt;font style=&quot;vertical-align: inherit;&quot;&gt;&lt;font style=&quot;vertical-align: inherit;&quot;&gt;&lt;font style=&quot;vertical-align: inherit;&quot;&gt;&lt;font style=&quot;vertical-align: inherit;&quot;&gt;&lt;font style=&quot;vertical-align: inherit;&quot;&gt;&lt;font style=&quot;vertical-align: inherit;&quot;&gt;&lt;font style=&quot;vertical-align: inherit;&quot;&gt;&lt;font style=&quot;vertical-align: inherit;&quot;&gt;&lt;font style=&quot;vertical-align: inherit;&quot;&gt;&lt;font style=&quot;vertical-align: inherit;&quot;&gt;&lt;font style=&quot;vertical-align: inherit;&quot;&gt;&lt;font style=&quot;vertical-align: inherit;&quot;&gt;&lt;font style=&quot;vertical-align: inherit;&quot;&gt;Збереження медичних записів&amp;nbsp;&lt;/font&gt;&lt;/font&gt;&lt;/font&gt;&lt;/font&gt;&lt;/font&gt;&lt;/font&gt;&lt;/font&gt;&lt;/font&gt;&lt;/font&gt;&lt;/font&gt;&lt;/font&gt;&lt;/font&gt;&lt;/font&gt;&lt;/font&gt;&lt;/font&gt;&lt;/font&gt;&lt;/font&gt;&lt;/font&gt;&lt;/font&gt;&lt;/font&gt;" style="rounded=1;whiteSpace=wrap;html=1;fillColor=#fff2cc;strokeColor=#d6b656;" vertex="1" parent="1">
          <mxGeometry x="540" y="860" width="82.5" height="50" as="geometry" />
        </mxCell>
        <mxCell id="hU7zYgluL8TnL1km8cas-32" value="&lt;font style=&quot;vertical-align: inherit;&quot;&gt;&lt;font style=&quot;vertical-align: inherit;&quot;&gt;&lt;font style=&quot;vertical-align: inherit;&quot;&gt;&lt;font style=&quot;vertical-align: inherit;&quot;&gt;&lt;font style=&quot;vertical-align: inherit;&quot;&gt;&lt;font style=&quot;vertical-align: inherit;&quot;&gt;Додавання медичних записів&lt;/font&gt;&lt;/font&gt;&lt;/font&gt;&lt;/font&gt;&lt;/font&gt;&lt;/font&gt;" style="rounded=1;whiteSpace=wrap;html=1;fillColor=#f8cecc;strokeColor=#b85450;" vertex="1" parent="1">
          <mxGeometry x="740" y="860" width="70" height="50" as="geometry" />
        </mxCell>
        <mxCell id="hU7zYgluL8TnL1km8cas-33" value="&lt;font style=&quot;vertical-align: inherit;&quot;&gt;&lt;font style=&quot;vertical-align: inherit;&quot;&gt;Мед персонал&lt;/font&gt;&lt;/font&gt;" style="shape=umlActor;verticalLabelPosition=bottom;verticalAlign=top;html=1;outlineConnect=0;fillColor=#fff2cc;strokeColor=#d6b656;" vertex="1" parent="1">
          <mxGeometry x="480" y="760" width="30" height="60" as="geometry" />
        </mxCell>
        <mxCell id="hU7zYgluL8TnL1km8cas-39" value="" style="endArrow=classic;html=1;rounded=0;entryX=0;entryY=0.75;entryDx=0;entryDy=0;fillColor=#fff2cc;strokeColor=#d6b656;" edge="1" parent="1" target="hU7zYgluL8TnL1km8cas-9">
          <mxGeometry width="50" height="50" relative="1" as="geometry">
            <mxPoint x="520" y="800" as="sourcePoint" />
            <mxPoint x="600" y="720" as="targetPoint" />
          </mxGeometry>
        </mxCell>
        <mxCell id="hU7zYgluL8TnL1km8cas-43" value="" style="endArrow=classic;html=1;rounded=0;entryX=0;entryY=1;entryDx=0;entryDy=0;fillColor=#fff2cc;strokeColor=#d6b656;" edge="1" parent="1" target="hU7zYgluL8TnL1km8cas-24">
          <mxGeometry width="50" height="50" relative="1" as="geometry">
            <mxPoint x="520" y="800" as="sourcePoint" />
            <mxPoint x="519.75" y="710" as="targetPoint" />
          </mxGeometry>
        </mxCell>
        <mxCell id="hU7zYgluL8TnL1km8cas-44" value="" style="endArrow=classic;html=1;rounded=0;fillColor=#fff2cc;strokeColor=#d6b656;entryX=0.374;entryY=0.008;entryDx=0;entryDy=0;entryPerimeter=0;" edge="1" parent="1" target="hU7zYgluL8TnL1km8cas-31">
          <mxGeometry width="50" height="50" relative="1" as="geometry">
            <mxPoint x="520" y="800" as="sourcePoint" />
            <mxPoint x="514.6999999999999" y="860" as="targetPoint" />
          </mxGeometry>
        </mxCell>
        <mxCell id="hU7zYgluL8TnL1km8cas-48" value="" style="endArrow=classic;html=1;rounded=0;entryX=0;entryY=0.5;entryDx=0;entryDy=0;fillColor=#d5e8d4;strokeColor=#82b366;" edge="1" parent="1" target="hU7zYgluL8TnL1km8cas-24">
          <mxGeometry width="50" height="50" relative="1" as="geometry">
            <mxPoint x="520" y="620" as="sourcePoint" />
            <mxPoint x="650" y="630" as="targetPoint" />
          </mxGeometry>
        </mxCell>
        <mxCell id="hU7zYgluL8TnL1km8cas-49" value="Лікар" style="shape=umlActor;verticalLabelPosition=bottom;verticalAlign=top;html=1;outlineConnect=0;fillColor=#f8cecc;strokeColor=#b85450;" vertex="1" parent="1">
          <mxGeometry x="830" y="745" width="30" height="60" as="geometry" />
        </mxCell>
        <mxCell id="hU7zYgluL8TnL1km8cas-51" value="" style="endArrow=classic;html=1;rounded=0;entryX=1;entryY=0.75;entryDx=0;entryDy=0;fillColor=#f8cecc;strokeColor=#b85450;" edge="1" parent="1" target="hU7zYgluL8TnL1km8cas-9">
          <mxGeometry width="50" height="50" relative="1" as="geometry">
            <mxPoint x="830" y="780" as="sourcePoint" />
            <mxPoint x="740" y="760" as="targetPoint" />
          </mxGeometry>
        </mxCell>
        <mxCell id="hU7zYgluL8TnL1km8cas-52" value="" style="endArrow=classic;html=1;rounded=0;fillColor=#f8cecc;strokeColor=#b85450;entryX=0.5;entryY=0;entryDx=0;entryDy=0;" edge="1" parent="1" target="hU7zYgluL8TnL1km8cas-32">
          <mxGeometry width="50" height="50" relative="1" as="geometry">
            <mxPoint x="830" y="780" as="sourcePoint" />
            <mxPoint x="801.4199999999998" y="858.6199999999999" as="targetPoint" />
          </mxGeometry>
        </mxCell>
        <mxCell id="hU7zYgluL8TnL1km8cas-53" value="" style="endArrow=classic;html=1;rounded=0;entryX=0.979;entryY=0.081;entryDx=0;entryDy=0;entryPerimeter=0;fillColor=#f8cecc;strokeColor=#b85450;" edge="1" parent="1" target="hU7zYgluL8TnL1km8cas-8">
          <mxGeometry width="50" height="50" relative="1" as="geometry">
            <mxPoint x="830" y="780" as="sourcePoint" />
            <mxPoint x="790" y="770" as="targetPoint" />
          </mxGeometry>
        </mxCell>
        <mxCell id="hU7zYgluL8TnL1km8cas-54" value="" style="endArrow=classic;html=1;rounded=0;fillColor=#fff2cc;strokeColor=#d6b656;" edge="1" parent="1" target="hU7zYgluL8TnL1km8cas-8">
          <mxGeometry width="50" height="50" relative="1" as="geometry">
            <mxPoint x="520" y="800" as="sourcePoint" />
            <mxPoint x="790" y="770" as="targetPoint" />
          </mxGeometry>
        </mxCell>
        <mxCell id="hU7zYgluL8TnL1km8cas-61" value="Консультація" style="shape=parallelogram;perimeter=parallelogramPerimeter;whiteSpace=wrap;html=1;fixedSize=1;fillColor=#d0cee2;strokeColor=#56517e;" vertex="1" parent="1">
          <mxGeometry x="610" y="700" width="140" height="30" as="geometry" />
        </mxCell>
        <mxCell id="hU7zYgluL8TnL1km8cas-63" value="" style="endArrow=classic;html=1;rounded=0;entryX=0;entryY=0.25;entryDx=0;entryDy=0;fillColor=#d5e8d4;strokeColor=#82b366;" edge="1" parent="1" target="hU7zYgluL8TnL1km8cas-61">
          <mxGeometry width="50" height="50" relative="1" as="geometry">
            <mxPoint x="520" y="620" as="sourcePoint" />
            <mxPoint x="700" y="710" as="targetPoint" />
          </mxGeometry>
        </mxCell>
        <mxCell id="hU7zYgluL8TnL1km8cas-64" value="" style="endArrow=classic;html=1;rounded=0;fillColor=#f8cecc;strokeColor=#b85450;entryX=0.865;entryY=1.053;entryDx=0;entryDy=0;entryPerimeter=0;" edge="1" parent="1" target="hU7zYgluL8TnL1km8cas-61">
          <mxGeometry width="50" height="50" relative="1" as="geometry">
            <mxPoint x="830" y="780" as="sourcePoint" />
            <mxPoint x="870" y="675" as="targetPoint" />
          </mxGeometry>
        </mxCell>
        <mxCell id="hU7zYgluL8TnL1km8cas-66" value="use case" style="shape=umlFrame;whiteSpace=wrap;html=1;pointerEvents=0;" vertex="1" parent="1">
          <mxGeometry x="530" y="440" width="290" height="480" as="geometry" />
        </mxCell>
        <mxCell id="hU7zYgluL8TnL1km8cas-67" value="USE CASE DIAGRAM" style="text;html=1;align=center;verticalAlign=middle;whiteSpace=wrap;rounded=0;" vertex="1" parent="1">
          <mxGeometry x="626.25" y="390" width="133.75" height="30" as="geometry" />
        </mxCell>
      </root>
    </mxGraphModel>
  </diagram>
</mxfile>
